# xmcd
#
# Track frame offsets: 
#        150
#        6218
#        19782
#        39095
#        55827
#        75601
#        93338
#        110002
#        123653
#        137135
#        155863
#
# Disc length: 2284 seconds
#
# Revision: 1
# Processed by: cddbd v1.5.2PL0 Copyright (c) Steve Scherf et al.
# Submitted via: ExactAudioCopyFreeDBPlugin 1.0
#
DISCID=8a08ea0b
DTITLE=Speakeasy - Tuottajalevy
DYEAR=2012
DGENRE=Rap
TTITLE0=Speakeasy Intro
TTITLE1=Ole Kuin Kotonasi (feat. Mies Nimeltä Hevonen)
TTITLE2=Vallankumous (feat. Shaka)
TTITLE3=Puukkobulevardi
TTITLE4=Yritän Selvii (feat. Mies Nimeltä Hevonen, Kube and Mäkki)
TTITLE5=Muutost Odotellessa (feat. Shaka)
TTITLE6=Me Ollaan Nuoriso (feat. Pelan)
TTITLE7=Tähän Asti Opittua 2012 (feat. Konna, Shaka, Adebizi and Jontti)
TTITLE8=Torni
TTITLE9=Absoluuttinen Totuus (feat. Pentagrammi)
TTITLE10=Veteen Kätketyt Viestit
EXTD=
EXTT0=
EXTT1=
EXTT2=
EXTT3=
EXTT4=
EXTT5=
EXTT6=
EXTT7=
EXTT8=
EXTT9=
EXTT10=
PLAYORDER=
